name Walk9.mot
datacolumns 19
datarows 15
range 1.85100000 1.86500000
endheader

                time	   L_ground_force_vx	   L_ground_force_vy	   L_ground_force_vz	   L_ground_force_px	   L_ground_force_py	   L_ground_force_pz	   R_ground_force_vx	   R_ground_force_vy	   R_ground_force_vz	   R_ground_force_px	   R_ground_force_py	   R_ground_force_pz	   L_ground_torque_x	   L_ground_torque_y	   L_ground_torque_z	   R_ground_torque_x	   R_ground_torque_y	   R_ground_torque_z	
          1.85100000	        -33.66557769	        528.20929717	        -39.20229491	          0.26685486	          0.00000000	          0.09905867	          0.00000000	          0.00000000	          0.00000000	          0.00000000	          0.00000000	          0.00000000	          0.00000000	          0.82953308	          0.00000000	          0.00000000	          0.00000000	          0.00000000	
          1.85200000	        -33.05190741	        526.76316275	        -39.18485006	          0.26707820	          0.00000000	          0.09905223	          0.00000000	          0.00000000	          0.00000000	          0.00000000	          0.00000000	          0.00000000	          0.00000000	          0.80172521	          0.00000000	          0.00000000	          0.00000000	          0.00000000	
          1.85300000	        -32.45605823	        525.41122685	        -39.15458750	          0.26733930	          0.00000000	          0.09904426	          0.00000000	          0.00000000	          0.00000000	          0.00000000	          0.00000000	          0.00000000	          0.00000000	          0.77865612	          0.00000000	          0.00000000	          0.00000000	          0.00000000	
          1.85400000	        -31.88119307	        524.12171439	        -39.11203012	          0.26761373	          0.00000000	          0.09906543	          0.00000000	          0.00000000	          0.00000000	          0.00000000	          0.00000000	          0.00000000	          0.00000000	          0.76444907	          0.00000000	          0.00000000	          0.00000000	          0.00000000	
          1.85500000	        -31.31782470	        522.86573271	        -39.07059575	          0.26788353	          0.00000000	          0.09912298	          0.00000000	          0.00000000	          0.00000000	          0.00000000	          0.00000000	          0.00000000	          0.00000000	          0.75633175	          0.00000000	          0.00000000	          0.00000000	          0.00000000	
          1.85600000	        -30.75691348	        521.64244416	        -39.04509459	          0.26814379	          0.00000000	          0.09921734	          0.00000000	          0.00000000	          0.00000000	          0.00000000	          0.00000000	          0.00000000	          0.00000000	          0.74837255	          0.00000000	          0.00000000	          0.00000000	          0.00000000	
          1.85700000	        -30.20044100	        520.45227942	        -39.03533525	          0.26838916	          0.00000000	          0.09934580	          0.00000000	          0.00000000	          0.00000000	          0.00000000	          0.00000000	          0.00000000	          0.00000000	          0.73551730	          0.00000000	          0.00000000	          0.00000000	          0.00000000	
          1.85800000	        -29.65458176	        519.28083481	        -39.03201019	          0.26861592	          0.00000000	          0.09950054	          0.00000000	          0.00000000	          0.00000000	          0.00000000	          0.00000000	          0.00000000	          0.00000000	          0.71541861	          0.00000000	          0.00000000	          0.00000000	          0.00000000	
          1.85900000	        -29.11806583	        518.12878216	        -39.02700739	          0.26883773	          0.00000000	          0.09967453	          0.00000000	          0.00000000	          0.00000000	          0.00000000	          0.00000000	          0.00000000	          0.00000000	          0.68913429	          0.00000000	          0.00000000	          0.00000000	          0.00000000	
          1.86000000	        -28.58669399	        517.02668755	        -39.01471219	          0.26907827	          0.00000000	          0.09986014	          0.00000000	          0.00000000	          0.00000000	          0.00000000	          0.00000000	          0.00000000	          0.00000000	          0.65987630	          0.00000000	          0.00000000	          0.00000000	          0.00000000	
          1.86100000	        -28.06377615	        515.99758559	        -38.99247066	          0.26934523	          0.00000000	          0.10003764	          0.00000000	          0.00000000	          0.00000000	          0.00000000	          0.00000000	          0.00000000	          0.00000000	          0.63116614	          0.00000000	          0.00000000	          0.00000000	          0.00000000	
          1.86200000	        -27.55711709	        515.01402357	        -38.96162086	          0.26962284	          0.00000000	          0.10017271	          0.00000000	          0.00000000	          0.00000000	          0.00000000	          0.00000000	          0.00000000	          0.00000000	          0.60654166	          0.00000000	          0.00000000	          0.00000000	          0.00000000	
          1.86300000	        -27.06771610	        514.01465831	        -38.92627001	          0.26988750	          0.00000000	          0.10023867	          0.00000000	          0.00000000	          0.00000000	          0.00000000	          0.00000000	          0.00000000	          0.00000000	          0.59074089	          0.00000000	          0.00000000	          0.00000000	          0.00000000	
          1.86400000	        -26.58259814	        512.97158171	        -38.89060326	          0.27013210	          0.00000000	          0.10024483	          0.00000000	          0.00000000	          0.00000000	          0.00000000	          0.00000000	          0.00000000	          0.00000000	          0.58874968	          0.00000000	          0.00000000	          0.00000000	          0.00000000	
          1.86500000	        -26.07954496	        511.91913945	        -38.85697958	          0.27037556	          0.00000000	          0.10023512	          0.00000000	          0.00000000	          0.00000000	          0.00000000	          0.00000000	          0.00000000	          0.00000000	          0.60163446	          0.00000000	          0.00000000	          0.00000000	          0.00000000	
